# xmcd CD database file
#
# Track frame offsets:
#	150
#	5095
#	23329
#	39295
#	60533
#	70844
#	83491
#	96022
#	114376
#	127922
#	142243
#	151185
#	163828
#	175605
#	188099
#	199155
#	206831
#	218333
#	229449
#	233600
#	255756
#	274554
#	283996
#	296658
#	307177
#	319659
#
# Disc length: 4385 seconds
#
# Revision: 0
# Processed by: cddbd v1.5.1PL0 Copyright (c) Steve Scherf et al.
# Submitted via: CDex 1.51
#
DISCID=64111f1a
DTITLE=MaWhie - VV Summer Swap 2005
DYEAR=2005
DGENRE=Jazz
TTITLE0=R D Burman - Hum Kisise Kum Naheen
TTITLE1=Davu Jones and Joanko Nilovic - Voodoo Ju Ju Obsession Part 2
TTITLE2=Alpay - Yekte 
TTITLE3=Baris Manco - Olum Allahin Emri
TTITLE4=Yan Tregger - Deo Volente
TTITLE5=Cortex - Madbass
TTITLE6=Bobby Boyd - There It Is
TTITLE7=Afro Kelenkey Band - Brotherhood Of Man
TTITLE8=Edition Speciale - Mr Business
TTITLE9=Daly Wilson Big Band - Super Strut
TTITLE10=Jacky Giordano - Remind
TTITLE11=Jacky Giordano - Plank
TTITLE12=Mystic Moods - Cosmic Sea
TTITLE13=Jean Jacques Dexter - Be Quite
TTITLE14=Enoch Light - Scarborough Fair
TTITLE15=Jumping Jacques - Let Them Eat Cake
TTITLE16=Guy Pederson - Sing Song Bass
TTITLE17=Jack Nodara and Robert Hermel - Understood
TTITLE18=Johnny Hawksworth - Teaser One
TTITLE19=P.A. Dahan and S. Pezin - Slim Bertha
TTITLE20=Jean Jacques Dexter - Hypnose Reelle
TTITLE21=Amazonas - Saragossa
TTITLE22=Arthur Lyman - Return To Paradise
TTITLE23=Cilla Black - Misty Roses
TTITLE24=Isabelle Aubret - Casa Forte
TTITLE25=Guy Pederson - Obsession Diabolique
EXTD=YEAR: 2005
EXTT0=
EXTT1=
EXTT2=
EXTT3=
EXTT4=
EXTT5=
EXTT6=
EXTT7=
EXTT8=
EXTT9=
EXTT10=
EXTT11=
EXTT12=
EXTT13=
EXTT14=
EXTT15=
EXTT16=
EXTT17=
EXTT18=
EXTT19=
EXTT20=
EXTT21=
EXTT22=
EXTT23=
EXTT24=
EXTT25=
PLAYORDER=
